<svg width="27" height="27" viewBox="0 0 27 27" fill="none" xmlns="http://www.w3.org/2000/svg">
<g id="tabler:send">
<path id="Vector" d="M13 13.4C12.2422 13.4 11.5155 13.0839 10.9797 12.5213C10.4439 11.9587 10.1429 11.1956 10.1429 10.4C10.1429 9.60435 10.4439 8.84129 10.9797 8.27868C11.5155 7.71607 12.2422 7.4 13 7.4C13.7578 7.4 14.4845 7.71607 15.0203 8.27868C15.5561 8.84129 15.8571 9.60435 15.8571 10.4C15.8571 10.794 15.7832 11.1841 15.6397 11.5481C15.4961 11.912 15.2856 12.2427 15.0203 12.5213C14.755 12.7999 14.44 13.0209 14.0934 13.1716C13.7467 13.3224 13.3752 13.4 13 13.4ZM13 2C10.8783 2 8.84344 2.885 7.34315 4.4603C5.84285 6.03561 5 8.17218 5 10.4C5 16.7 13 26 13 26C13 26 21 16.7 21 10.4C21 8.17218 20.1571 6.03561 18.6569 4.4603C17.1566 2.885 15.1217 2 13 2Z" fill="white"/>
</g>
</svg>
