<svg xmlns="http://www.w3.org/2000/svg" width="20" height="21" viewBox="0 0 20 21" fill="none">
  <path d="M10.0003 10.0625C9.44779 10.0625 8.91789 9.83203 8.52719 9.42179C8.13649 9.01156 7.91699 8.45516 7.91699 7.875C7.91699 7.29484 8.13649 6.73844 8.52719 6.3282C8.91789 5.91797 9.44779 5.6875 10.0003 5.6875C10.5529 5.6875 11.0828 5.91797 11.4735 6.3282C11.8642 6.73844 12.0837 7.29484 12.0837 7.875C12.0837 8.16227 12.0298 8.44672 11.9251 8.71212C11.8204 8.97752 11.6669 9.21867 11.4735 9.42179C11.28 9.62492 11.0503 9.78605 10.7976 9.89599C10.5448 10.0059 10.2739 10.0625 10.0003 10.0625ZM10.0003 1.75C8.45323 1.75 6.9695 2.39531 5.87554 3.54397C4.78157 4.69263 4.16699 6.25055 4.16699 7.875C4.16699 12.4687 10.0003 19.25 10.0003 19.25C10.0003 19.25 15.8337 12.4687 15.8337 7.875C15.8337 6.25055 15.2191 4.69263 14.1251 3.54397C13.0312 2.39531 11.5474 1.75 10.0003 1.75Z" fill="white"/>
</svg>