<svg width="22" height="21" viewBox="0 0 22 21" fill="none" xmlns="http://www.w3.org/2000/svg">
<g id="mdi:location">
<path id="Vector" d="M11.0104 9.87301C10.4442 9.87301 9.90109 9.64806 9.50069 9.24766C9.10029 8.84726 8.87534 8.3042 8.87534 7.73794C8.87534 7.17169 9.10029 6.62863 9.50069 6.22823C9.90109 5.82782 10.4442 5.60288 11.0104 5.60288C11.5767 5.60288 12.1197 5.82782 12.5201 6.22823C12.9205 6.62863 13.1455 7.17169 13.1455 7.73794C13.1455 8.01833 13.0902 8.29596 12.9829 8.555C12.8757 8.81404 12.7184 9.0494 12.5201 9.24766C12.3219 9.44592 12.0865 9.60319 11.8275 9.71049C11.5684 9.81778 11.2908 9.87301 11.0104 9.87301ZM11.0104 1.75977C9.42489 1.75977 7.90432 2.38961 6.78319 3.51073C5.66207 4.63186 5.03223 6.15243 5.03223 7.73794C5.03223 12.2216 11.0104 18.8403 11.0104 18.8403C11.0104 18.8403 16.9886 12.2216 16.9886 7.73794C16.9886 6.15243 16.3587 4.63186 15.2376 3.51073C14.1165 2.38961 12.5959 1.75977 11.0104 1.75977Z" fill="white"/>
</g>
</svg>
