<svg xmlns="http://www.w3.org/2000/svg" width="20" height="20" viewBox="0 0 18 18" fill="none">
  <path d="M8.5363 2.13373C7.97028 2.13373 7.42743 2.35858 7.0272 2.75882C6.62696 3.15906 6.40211 3.7019 6.40211 4.26792V7.11351C6.40211 7.67953 6.62696 8.22237 7.0272 8.62261C7.42743 9.02285 7.97028 9.2477 8.5363 9.2477C9.10232 9.2477 9.64516 9.02285 10.0454 8.62261C10.4456 8.22237 10.6705 7.67953 10.6705 7.11351V4.26792C10.6705 3.7019 10.4456 3.15906 10.0454 2.75882C9.64516 2.35858 9.10232 2.13373 8.5363 2.13373ZM8.5363 0.710938C9.00341 0.710938 9.46594 0.802942 9.8975 0.981697C10.3291 1.16045 10.7212 1.42246 11.0515 1.75275C11.3818 2.08305 11.6438 2.47517 11.8225 2.90672C12.0013 3.33828 12.0933 3.80081 12.0933 4.26792V7.11351C12.0933 8.05688 11.7185 8.96162 11.0515 9.62868C10.3844 10.2957 9.47967 10.6705 8.5363 10.6705C7.59293 10.6705 6.68819 10.2957 6.02113 9.62868C5.35407 8.96162 4.97931 8.05688 4.97931 7.11351V4.26792C4.97931 3.32455 5.35407 2.41982 6.02113 1.75275C6.68819 1.08569 7.59293 0.710938 8.5363 0.710938ZM2.17285 7.82491H3.60632C3.77868 9.00923 4.37169 10.0919 5.27684 10.8749C6.182 11.6578 7.33879 12.0887 8.53559 12.0887C9.73238 12.0887 10.8892 11.6578 11.7943 10.8749C12.6995 10.0919 13.2925 9.00923 13.4649 7.82491H14.899C14.7373 9.26813 14.0899 10.6135 13.0631 11.6405C12.0362 12.6675 10.6909 13.315 9.24769 13.477V16.3617H7.8249V13.477C6.38157 13.3152 5.03607 12.6677 4.00909 11.6407C2.98211 10.6137 2.33463 9.26824 2.17285 7.82491Z" fill="white"/>
</svg>