<svg width="27" height="27" viewBox="0 0 27 27" fill="none" xmlns="http://www.w3.org/2000/svg">
<g id="ri:mic-line">
<path id="Vector" d="M13.5 3.375C12.6049 3.375 11.7465 3.73058 11.1135 4.36351C10.4806 4.99645 10.125 5.85489 10.125 6.75V11.25C10.125 12.1451 10.4806 13.0036 11.1135 13.6365C11.7465 14.2694 12.6049 14.625 13.5 14.625C14.3951 14.625 15.2536 14.2694 15.8865 13.6365C16.5194 13.0036 16.875 12.1451 16.875 11.25V6.75C16.875 5.85489 16.5194 4.99645 15.8865 4.36351C15.2536 3.73058 14.3951 3.375 13.5 3.375ZM13.5 1.125C14.2387 1.125 14.9702 1.27049 15.6526 1.55318C16.3351 1.83586 16.9552 2.25019 17.4775 2.77252C17.9998 3.29485 18.4142 3.91495 18.6968 4.59741C18.9795 5.27986 19.125 6.01131 19.125 6.75V11.25C19.125 12.7418 18.5324 14.1726 17.4775 15.2275C16.4226 16.2824 14.9919 16.875 13.5 16.875C12.0082 16.875 10.5774 16.2824 9.52254 15.2275C8.46765 14.1726 7.87501 12.7418 7.87501 11.25V6.75C7.87501 5.25816 8.46765 3.82742 9.52254 2.77252C10.5774 1.71763 12.0082 1.125 13.5 1.125ZM3.43689 12.375H5.70376C5.97634 14.2479 6.91412 15.96 8.34553 17.1982C9.77693 18.4363 11.6063 19.1177 13.4989 19.1177C15.3915 19.1177 17.2208 18.4363 18.6523 17.1982C20.0837 15.96 21.0214 14.2479 21.294 12.375H23.562C23.3062 14.6573 22.2825 16.7849 20.6586 18.409C19.0348 20.033 16.9073 21.057 14.625 21.3131V25.875H12.375V21.3131C10.0925 21.0573 7.96477 20.0334 6.34071 18.4093C4.71665 16.7852 3.69273 14.6575 3.43689 12.375Z" fill="white"/>
</g>
</svg>
