<svg xmlns="http://www.w3.org/2000/svg" width="18" height="18" viewBox="0 0 18 18" fill="none">
  <path d="M14.0626 4.5V11.8125C14.0626 11.9617 14.0033 12.1048 13.8978 12.2102C13.7923 12.3157 13.6493 12.375 13.5001 12.375C13.3509 12.375 13.2078 12.3157 13.1023 12.2102C12.9968 12.1048 12.9376 11.9617 12.9376 11.8125V5.85773L4.89804 13.898C4.79249 14.0035 4.64934 14.0628 4.50007 14.0628C4.3508 14.0628 4.20765 14.0035 4.1021 13.898C3.99655 13.7924 3.93726 13.6493 3.93726 13.5C3.93726 13.3507 3.99655 13.2076 4.1021 13.102L12.1423 5.0625H6.18757C6.03838 5.0625 5.89531 5.00324 5.78982 4.89775C5.68433 4.79226 5.62507 4.64918 5.62507 4.5C5.62507 4.35082 5.68433 4.20774 5.78982 4.10225C5.89531 3.99676 6.03838 3.9375 6.18757 3.9375H13.5001C13.6493 3.9375 13.7923 3.99676 13.8978 4.10225C14.0033 4.20774 14.0626 4.35082 14.0626 4.5Z" fill="#A6A6A6"/>
</svg>