<svg xmlns="http://www.w3.org/2000/svg" width="23" height="23" viewBox="0 0 23 23" fill="none">
  <path d="M14.2939 13.0278H13.5653L13.3071 12.7788C14.2421 11.6943 14.756 10.3098 14.755 8.87797C14.755 7.69243 14.4034 6.53352 13.7448 5.54778C13.0861 4.56205 12.1499 3.79376 11.0547 3.34007C9.95936 2.88639 8.75413 2.76768 7.59138 2.99897C6.42862 3.23025 5.36056 3.80115 4.52226 4.63945C3.68396 5.47775 3.11307 6.54581 2.88178 7.70856C2.65049 8.87132 2.7692 10.0766 3.22288 11.1718C3.67657 12.2671 4.44486 13.2033 5.4306 13.8619C6.41633 14.5206 7.57525 14.8721 8.76078 14.8721C10.2455 14.8721 11.6103 14.3281 12.6616 13.4243L12.9106 13.6825V14.4111L17.5215 19.0127L18.8956 17.6387L14.2939 13.0278ZM8.76078 13.0278C6.46455 13.0278 4.61097 11.1742 4.61097 8.87797C4.61097 6.58174 6.46455 4.72815 8.76078 4.72815C11.057 4.72815 12.9106 6.58174 12.9106 8.87797C12.9106 11.1742 11.057 13.0278 8.76078 13.0278Z" fill="#A6A6A6"/>
</svg>