<svg width="35" height="35" viewBox="0 0 35 35" fill="none" xmlns="http://www.w3.org/2000/svg">
<g id="ic:baseline-search">
<path id="Vector" d="M22.6042 20.4167H21.4521L21.0438 20.0229C22.5223 18.308 23.3349 16.1185 23.3333 13.8542C23.3333 11.9794 22.7774 10.1467 21.7358 8.58783C20.6942 7.02899 19.2138 5.81402 17.4817 5.09656C15.7496 4.37911 13.8437 4.19139 12.0049 4.55714C10.1661 4.9229 8.47707 5.8257 7.15139 7.15139C5.8257 8.47707 4.9229 10.1661 4.55714 12.0049C4.19139 13.8437 4.37911 15.7496 5.09656 17.4817C5.81402 19.2138 7.02899 20.6942 8.58783 21.7358C10.1467 22.7774 11.9794 23.3333 13.8542 23.3333C16.2021 23.3333 18.3604 22.4729 20.0229 21.0438L20.4167 21.4521V22.6042L27.7083 29.8813L29.8813 27.7083L22.6042 20.4167ZM13.8542 20.4167C10.2229 20.4167 7.29167 17.4854 7.29167 13.8542C7.29167 10.2229 10.2229 7.29167 13.8542 7.29167C17.4854 7.29167 20.4167 10.2229 20.4167 13.8542C20.4167 17.4854 17.4854 20.4167 13.8542 20.4167Z" fill="#A6A6A6"/>
</g>
</svg>
